<svg width="18" height="18" viewBox="0 0 18 18" fill="none" xmlns="http://www.w3.org/2000/svg">
<path fill-rule="evenodd" clip-rule="evenodd" d="M5.80078 3.00146C5.8667 2.80371 6.06445 2.67188 6.26221 2.67188C6.45996 2.67188 6.65771 2.80371 6.75659 3.00146L8.47046 6.75879L12.2278 8.50562C12.4255 8.57153 12.5574 8.76929 12.5574 8.96704C12.5574 9.16479 12.4255 9.36255 12.2278 9.46143L8.47046 11.1753L6.75659 14.9326C6.65771 15.1304 6.45996 15.2622 6.26221 15.2622C6.06445 15.2622 5.8667 15.1304 5.80078 14.9326L4.05396 11.1753L0.296631 9.46143C0.098877 9.36255 0 9.16479 0 8.96704C0 8.76929 0.098877 8.57153 0.296631 8.47266L4.05396 6.75879L5.80078 3.00146ZM4.71313 9.75806L3.03223 8.96704L4.71313 8.17603C5.04272 8.04419 5.33936 7.74756 5.50415 7.41797L6.26221 5.73706L7.05322 7.41797C7.21802 7.74756 7.48169 8.04419 7.81128 8.17603L9.49219 8.96704L7.81128 9.75806C7.48169 9.88989 7.21802 10.1865 7.05322 10.5161L6.26221 12.197L5.50415 10.5161C5.33936 10.1865 5.04272 9.88989 4.71313 9.75806Z" fill="#AA5EEA"/>
<path fill-rule="evenodd" clip-rule="evenodd" d="M12.6562 2.67188L10.7776 3.39697C10.6458 3.42993 10.5469 3.59473 10.5469 3.72656C10.5469 3.89136 10.6458 4.05615 10.7776 4.08911L12.6562 4.78125L13.3484 6.65991C13.3813 6.79175 13.5461 6.89062 13.7109 6.89062C13.8428 6.89062 14.0076 6.79175 14.0405 6.65991L14.7656 4.78125L16.6113 4.08911C16.7761 4.05615 16.875 3.89136 16.875 3.72656C16.875 3.59473 16.7761 3.42993 16.6113 3.39697L14.7656 2.67188L14.0405 0.826172C14.0076 0.661377 13.8428 0.5625 13.7109 0.5625C13.5461 0.5625 13.3813 0.661377 13.3484 0.826172L12.6562 2.67188ZM13.3484 11.373L12.6562 13.2188L10.7776 13.9438C10.6458 13.9768 10.5469 14.1416 10.5469 14.2734C10.5469 14.4382 10.6458 14.603 10.7776 14.636L12.6562 15.3281L13.3484 17.2068C13.3813 17.3386 13.5461 17.4375 13.7109 17.4375C13.8428 17.4375 14.0076 17.3386 14.0405 17.2068L14.7656 15.3281L16.6113 14.636C16.7761 14.603 16.875 14.4382 16.875 14.2734C16.875 14.1416 16.7761 13.9768 16.6113 13.9438L14.7656 13.2188L14.0405 11.373C14.0076 11.2083 13.8428 11.1094 13.7109 11.1094C13.5461 11.1094 13.3813 11.2083 13.3484 11.373Z" fill="#AA5EEA"/>
</svg>
