<svg width="18" height="18" viewBox="0 0 18 18" fill="none" xmlns="http://www.w3.org/2000/svg">
<path fill-rule="evenodd" clip-rule="evenodd" d="M0.199313 5.22951C0.199313 4.43177 0.870886 3.78507 1.69931 3.78507L6.71842 3.78491C7.54685 3.78491 8.21842 4.43161 8.21842 5.22936L8.21833 12.7707C8.21833 13.5684 7.54675 14.2151 6.71833 14.2151L1.69922 14.2153C0.870792 14.2153 0.199219 13.5686 0.199219 12.7708L0.199313 5.22951ZM6.71842 5.22936L1.69931 5.22951L1.69922 12.7708L6.71833 12.7707L6.71842 5.22936Z" fill="#2F7FEF"/>
<path d="M10.3201 5.82323C10.3201 5.44237 10.6497 5.1201 11.1111 5.1201H17.205C17.6334 5.1201 17.996 5.44237 17.996 5.82323C17.996 6.23339 17.6334 6.52635 17.205 6.52635H11.1111C10.6497 6.52635 10.3201 6.23339 10.3201 5.82323Z" fill="#2F7FEF"/>
<path d="M10.3201 8.96405C10.3201 8.58319 10.6497 8.26093 11.1111 8.26093H17.205C17.6334 8.26093 17.996 8.58319 17.996 8.96405C17.996 9.37421 17.6334 9.66718 17.205 9.66718H11.1111C10.6497 9.66718 10.3201 9.37421 10.3201 8.96405Z" fill="#2F7FEF"/>
<path d="M10.3201 12.1083C10.3201 11.7274 10.6497 11.4052 11.1111 11.4052H15.0229C15.4514 11.4052 15.8139 11.7274 15.8139 12.1083C15.8139 12.5184 15.4514 12.8114 15.0229 12.8114H11.1111C10.6497 12.8114 10.3201 12.5184 10.3201 12.1083Z" fill="#2F7FEF"/>
</svg>
