<svg width="18" height="18" viewBox="0 0 18 18" fill="none" xmlns="http://www.w3.org/2000/svg">
<path d="M12.3545 0.0705566C12.9808 0.0705566 13.4422 0.696777 13.2774 1.29004L11.3557 7.94516H14.1902C14.8164 7.94516 15.3108 8.4725 15.3108 9.09873C15.3108 9.46127 15.179 9.7579 14.9153 9.98862L6.25336 17.7227C6.08856 17.8546 5.89081 17.9205 5.6601 17.9205C5.03387 17.9205 4.57245 17.3272 4.73724 16.734L6.64258 10.0545H3.77515C3.18188 10.0545 2.6875 9.56015 2.6875 8.96689C2.6875 8.6373 2.81934 8.34067 3.05005 8.10996L11.7613 0.30127C11.9261 0.169434 12.1238 0.0705566 12.3545 0.0705566ZM11.168 2.87207L5.06055 8.4725H7.69727C7.92798 8.4725 8.15869 8.60434 8.32349 8.80209C8.45532 8.99985 8.52124 9.26352 8.45532 9.49423L6.84662 15.1519L13.0037 9.52719H10.334C10.0703 9.52719 9.8396 9.42831 9.6748 9.23056C9.54297 9.03281 9.47705 8.76914 9.54297 8.53842L11.168 2.87207Z" fill="#2F7FEF"/>
</svg>
