<svg width="18" height="18" viewBox="0 0 18 18" fill="none" xmlns="http://www.w3.org/2000/svg">
<g clip-path="url(#clip0_4387_34196)">
<path fill-rule="evenodd" clip-rule="evenodd" d="M0 3.62999C0 1.6532 1.54816 0 3.51923 0H14.4808C16.4518 0 18 1.6532 18 3.62999V6.07799C18 6.4922 17.6642 6.82799 17.25 6.82799C16.8358 6.82799 16.5 6.4922 16.5 6.07799V3.62999C16.5 2.42564 15.5685 1.5 14.4808 1.5H3.51923C2.43149 1.5 1.5 2.42564 1.5 3.62999V6.07799C1.5 6.4922 1.16421 6.82799 0.75 6.82799C0.335786 6.82799 0 6.4922 0 6.07799V3.62999Z" fill="#2F7FEF"/>
<path fill-rule="evenodd" clip-rule="evenodd" d="M0 14.37C0 16.3468 1.54816 18 3.51923 18H14.4808C16.4518 18 18 16.3468 18 14.37V11.922C18 11.5078 17.6642 11.172 17.25 11.172C16.8358 11.172 16.5 11.5078 16.5 11.922V14.37C16.5 15.5744 15.5685 16.5 14.4808 16.5H3.51923C2.43149 16.5 1.5 15.5744 1.5 14.37V11.922C1.5 11.5078 1.16421 11.172 0.75 11.172C0.335786 11.172 0 11.5078 0 11.922V14.37Z" fill="#2F7FEF"/>
<path fill-rule="evenodd" clip-rule="evenodd" d="M8.84305 3.75C9.25726 3.75 9.59305 4.08579 9.59305 4.5V13.5C9.59305 13.9142 9.25726 14.25 8.84305 14.25C8.42884 14.25 8.09305 13.9142 8.09305 13.5V4.5C8.09305 4.08579 8.42884 3.75 8.84305 3.75Z" fill="#2F7FEF"/>
<path fill-rule="evenodd" clip-rule="evenodd" d="M11.9645 6.23667C12.3788 6.23667 12.7145 6.57246 12.7145 6.98667V11.2893C12.7145 11.7035 12.3788 12.0393 11.9645 12.0393C11.5503 12.0393 11.2145 11.7035 11.2145 11.2893V6.98667C11.2145 6.57246 11.5503 6.23667 11.9645 6.23667Z" fill="#2F7FEF"/>
<path fill-rule="evenodd" clip-rule="evenodd" d="M5.63623 6.23667C5.22202 6.23667 4.88623 6.57246 4.88623 6.98667V11.2893C4.88623 11.7035 5.22202 12.0393 5.63623 12.0393C6.05044 12.0393 6.38623 11.7035 6.38623 11.2893L6.38623 6.98667C6.38623 6.57246 6.05044 6.23667 5.63623 6.23667Z" fill="#2F7FEF"/>
<path fill-rule="evenodd" clip-rule="evenodd" d="M14.7994 7.61846C15.2136 7.61846 15.5494 7.95425 15.5494 8.36846V9.63162C15.5494 10.0458 15.2136 10.3816 14.7994 10.3816C14.3852 10.3816 14.0494 10.0458 14.0494 9.63162V8.36846C14.0494 7.95425 14.3852 7.61846 14.7994 7.61846Z" fill="#2F7FEF"/>
<path fill-rule="evenodd" clip-rule="evenodd" d="M2.7948 7.61846C2.38059 7.61846 2.0448 7.95425 2.0448 8.36846L2.0448 9.63162C2.0448 10.0458 2.38059 10.3816 2.7948 10.3816C3.20901 10.3816 3.5448 10.0458 3.5448 9.63162V8.36846C3.5448 7.95425 3.20901 7.61846 2.7948 7.61846Z" fill="#2F7FEF"/>
</g>
<defs>
<clipPath id="clip0_4387_34196">
<rect width="18" height="18" fill="white"/>
</clipPath>
</defs>
</svg>
