<svg width="18" height="18" viewBox="0 0 18 18" fill="none" xmlns="http://www.w3.org/2000/svg">
<path d="M7.41797 14.6953V15.2227L9.79102 13.4429C10.0547 13.2451 10.3843 13.1133 10.7468 13.1133H15.3281C15.5918 13.1133 15.8555 12.8826 15.8555 12.5859V3.09375C15.8555 2.83008 15.5918 2.56641 15.3281 2.56641H2.67188C2.37524 2.56641 2.14453 2.83008 2.14453 3.09375V12.5859C2.14453 12.8826 2.37524 13.1133 2.67188 13.1133H5.83594C6.69287 13.1133 7.41797 13.8384 7.41797 14.6953ZM7.38501 17.2332L7.22021 17.332L6.65991 17.7605C6.49512 17.8923 6.29736 17.8923 6.09961 17.8264C5.93481 17.7275 5.83594 17.5627 5.83594 17.332V16.6399V16.4421V16.4092V16.2773V14.6953H4.25391H2.67188C1.48535 14.6953 0.5625 13.7725 0.5625 12.5859V3.09375C0.5625 1.94019 1.48535 0.984375 2.67188 0.984375H15.3281C16.4817 0.984375 17.4375 1.94019 17.4375 3.09375V12.5859C17.4375 13.7725 16.4817 14.6953 15.3281 14.6953H10.7468L7.41797 17.2002L7.38501 17.2332ZM5.57227 5.64096H12.4277C12.8562 5.64096 13.2188 6.00351 13.2188 6.43198C13.2188 6.8934 12.8562 7.22299 12.4277 7.22299H5.57227C5.11084 7.22299 4.78125 6.8934 4.78125 6.43198C4.78125 6.00351 5.11084 5.64096 5.57227 5.64096ZM5.57227 8.80503H9.26367C9.69214 8.80503 10.0547 9.16757 10.0547 9.59604C10.0547 10.0575 9.69214 10.3871 9.26367 10.3871H5.57227C5.11084 10.3871 4.78125 10.0575 4.78125 9.59604C4.78125 9.16757 5.11084 8.80503 5.57227 8.80503Z" fill="#2F7FEF"/>
</svg>
