<svg width="18" height="18" viewBox="0 0 18 18" fill="none" xmlns="http://www.w3.org/2000/svg">
<path fill-rule="evenodd" clip-rule="evenodd" d="M2.03125 3.11956C2.03125 2.22209 2.70282 1.49456 3.53125 1.49456L14.4146 1.49438C15.243 1.49438 15.9146 2.22192 15.9146 3.11938L15.9146 7.69785C15.9146 8.59531 15.243 9.32285 14.4146 9.32285L3.53125 9.32302C2.70282 9.32302 2.03125 8.59548 2.03125 7.69802L2.03125 3.11956ZM14.4146 3.11938L3.53125 3.11956V7.69802L14.4146 7.69785L14.4146 3.11938Z" fill="#EA5E5E"/>
<path d="M15.4631 11.5389H2.53346C2.25731 11.5389 2.03137 11.7762 2.03137 12.0663V12.5936C2.03137 12.8837 2.25731 13.121 2.53346 13.121H15.4631C15.7393 13.121 15.9652 12.8837 15.9652 12.5936V12.0663C15.9652 11.7762 15.7393 11.5389 15.4631 11.5389ZM10.059 14.9236H2.53335C2.25719 14.9236 2.03125 15.1609 2.03125 15.4509V15.9783C2.03125 16.2683 2.25719 16.5056 2.53335 16.5056H10.059C10.3352 16.5056 10.5611 16.2683 10.5611 15.9783V15.4509C10.5611 15.1609 10.3352 14.9236 10.059 14.9236Z" fill="#EA5E5E"/>
</svg>
