<svg width="12" height="12" viewBox="0 0 12 12" fill="none" xmlns="http://www.w3.org/2000/svg">
  <g clip-path="url(#clip0_40623_114206)">
    <path
      d="M9.85928 2.88094L9.85928 9.12358C9.87586 9.5379 9.52783 9.88593 9.11351 9.86936C8.69919 9.88593 8.35116 9.5379 8.36773 9.12358V4.70395L3.41777 9.65391C3.11946 9.95222 2.63885 9.93565 2.35711 9.65391C2.0588 9.3556 2.0588 8.89156 2.35711 8.59325L7.30707 3.64329L2.87087 3.62672C2.45655 3.64329 2.10852 3.29526 2.12509 2.88094C2.10852 2.46662 2.45655 2.11859 2.87087 2.13516H9.11351C9.52783 2.11859 9.87586 2.46662 9.85928 2.88094Z"
      fill="#fff"/>
  </g>
  <defs>
    <clipPath id="clip0_40623_114206">
      <rect width="12" height="12" fill="white" transform="translate(0 -0.00390625)"/>
    </clipPath>
  </defs>
</svg>
