<svg width="49" height="48" viewBox="0 0 49 48" fill="none" xmlns="http://www.w3.org/2000/svg">
<path fill-rule="evenodd" clip-rule="evenodd" d="M8.92969 13.4088C8.92969 11.9401 10.0239 10.7866 11.3297 10.7866H20.663C21.9688 10.7866 23.063 11.9401 23.063 13.4088V23.52C23.063 24.9887 21.9688 26.1422 20.663 26.1422H11.3297C10.0239 26.1422 8.92969 24.9887 8.92969 23.52V13.4088ZM20.9297 13.1422H11.063V23.7866H20.9297V13.1422Z" fill="white" fill-opacity="0.6"/>
<path fill-rule="evenodd" clip-rule="evenodd" d="M26.2625 13.4088C26.2625 11.9401 27.3567 10.7866 28.6625 10.7866H37.9958C39.3016 10.7866 40.3958 11.9401 40.3958 13.4088V23.52C40.3958 24.9887 39.3016 26.1422 37.9958 26.1422H28.6625C27.3567 26.1422 26.2625 24.9887 26.2625 23.52V13.4088ZM38.2625 13.1422H28.3958V23.7866H38.2625V13.1422Z" fill="white" fill-opacity="0.6"/>
<path d="M8.92969 30.8677C8.92969 30.1973 9.42682 29.6907 9.99635 29.6907H20.663C21.2326 29.6907 21.7297 30.1973 21.7297 30.8677C21.7297 31.5381 21.2326 32.0447 20.663 32.0447H9.99635C9.42682 32.0447 8.92969 31.5381 8.92969 30.8677Z" fill="white" fill-opacity="0.6"/>
<path d="M26.2627 30.8677C26.2627 30.1973 26.7598 29.6907 27.3294 29.6907H37.996C38.5656 29.6907 39.0627 30.1973 39.0627 30.8677C39.0627 31.5381 38.5656 32.0447 37.996 32.0447H27.3294C26.7598 32.0447 26.2627 31.5381 26.2627 30.8677Z" fill="white" fill-opacity="0.6"/>
<path d="M8.92969 36.0081C8.92969 35.3377 9.42682 34.8311 9.99635 34.8311H16.663C17.2326 34.8311 17.7297 35.3377 17.7297 36.0081C17.7297 36.6785 17.2326 37.1851 16.663 37.1851H9.99635C9.42682 37.1851 8.92969 36.6785 8.92969 36.0081Z" fill="white" fill-opacity="0.6"/>
<path d="M26.2627 36.0081C26.2627 35.3377 26.7598 34.8311 27.3294 34.8311H33.996C34.5656 34.8311 35.0627 35.3377 35.0627 36.0081C35.0627 36.6785 34.5656 37.1851 33.996 37.1851H27.3294C26.7598 37.1851 26.2627 36.6785 26.2627 36.0081Z" fill="white" fill-opacity="0.6"/>
</svg>
