<svg width="48" height="48" viewBox="0 0 48 48" fill="none" xmlns="http://www.w3.org/2000/svg">
<path d="M21.375 13.125C18.2031 13.125 15.3594 14.8203 13.7734 17.5C12.1875 20.2344 12.1875 23.5703 13.7734 26.25C15.3594 28.9844 18.2031 30.625 21.375 30.625C24.4922 30.625 27.3359 28.9844 28.9219 26.25C30.5078 23.5703 30.5078 20.2344 28.9219 17.5C27.3359 14.8203 24.4922 13.125 21.375 13.125ZM21.375 33.25C15.0859 33.25 10 28.1641 10 21.875C10 15.6406 15.0859 10.5 21.375 10.5C27.6094 10.5 32.75 15.6406 32.75 21.875C32.75 24.5547 31.8203 27.0156 30.2891 28.9844L37.5625 36.3125C38.1094 36.8047 38.1094 37.625 37.5625 38.1172C37.0703 38.6641 36.25 38.6641 35.7578 38.1172L28.4297 30.8438C26.4609 32.375 24 33.25 21.375 33.25ZM22.6875 17.9375V25.8125C22.6875 26.5781 22.0859 27.125 21.375 27.125C20.6094 27.125 20.0625 26.5781 20.0625 25.8125V17.9375C20.0625 17.2266 20.6094 16.625 21.375 16.625C22.0859 16.625 22.6875 17.2266 22.6875 17.9375ZM18.3125 19.6875V24.0625C18.3125 24.8281 17.7109 25.375 17 25.375C16.2344 25.375 15.6875 24.8281 15.6875 24.0625V19.6875C15.6875 18.9766 16.2344 18.375 17 18.375C17.7109 18.375 18.3125 18.9766 18.3125 19.6875ZM27.0625 20.5625V23.1875C27.0625 23.9531 26.4609 24.5 25.75 24.5C24.9844 24.5 24.4375 23.9531 24.4375 23.1875V20.5625C24.4375 19.8516 24.9844 19.25 25.75 19.25C26.4609 19.25 27.0625 19.8516 27.0625 20.5625Z" fill="white" fill-opacity="0.6"/>
</svg>
