<svg width="48" height="48" viewBox="0 0 48 48" fill="none" xmlns="http://www.w3.org/2000/svg">
<path d="M22.25 13.125C21.7578 13.125 21.375 13.5625 21.375 14V35C21.375 35.4922 21.7578 35.875 22.25 35.875H36.25C36.6875 35.875 37.125 35.4922 37.125 35V14C37.125 13.5625 36.6875 13.125 36.25 13.125H22.25ZM18.75 14C18.75 12.0859 20.2812 10.5 22.25 10.5H36.25C38.1641 10.5 39.75 12.0859 39.75 14V35C39.75 36.9688 38.1641 38.5 36.25 38.5H22.25C20.2812 38.5 18.75 36.9688 18.75 35V14ZM13.5 14.4375C13.5 13.7266 14.0469 13.125 14.8125 13.125C15.5234 13.125 16.125 13.7266 16.125 14.4375V34.5625C16.125 35.3281 15.5234 35.875 14.8125 35.875C14.0469 35.875 13.5 35.3281 13.5 34.5625V14.4375ZM8.25 17.0625C8.25 16.3516 8.79688 15.75 9.5625 15.75C10.2734 15.75 10.875 16.3516 10.875 17.0625V31.9375C10.875 32.7031 10.2734 33.25 9.5625 33.25C8.79688 33.25 8.25 32.7031 8.25 31.9375V17.0625Z" fill="white" fill-opacity="0.6"/>
</svg>
