<svg width="49" height="48" viewBox="0 0 49 48" fill="none" xmlns="http://www.w3.org/2000/svg">
<path fill-rule="evenodd" clip-rule="evenodd" d="M20.1913 20.209C18.0637 20.209 16.339 21.9332 16.339 24.06C16.339 26.1869 18.0637 27.911 20.1913 27.911H24.1478V24.06V20.209H20.1913ZM29.8743 18.3355L29.9784 18.3355C32.106 18.3355 33.8307 16.6114 33.8307 14.4845C33.8307 12.3576 32.106 10.6335 29.9784 10.6335H26.0219V18.3355L29.8743 18.3355ZM33.1187 19.2723C34.6764 18.2492 35.7048 16.4869 35.7048 14.4845C35.7048 11.323 33.141 8.76001 29.9784 8.76001H26.0219H25.0848H24.1478H20.1913C17.0287 8.76001 14.4648 11.323 14.4648 14.4845C14.4648 16.4869 15.4933 18.2492 17.051 19.2723C15.4933 20.2953 14.4648 22.0576 14.4648 24.06C14.4648 26.0624 15.4933 27.8247 17.051 28.8478C15.4933 29.8708 14.4648 31.6331 14.4648 33.6355C14.4648 36.8036 17.0611 39.36 20.2172 39.36C23.402 39.36 26.0219 36.7803 26.0219 33.5835V29.7845V28.8478V28.2956C27.0391 29.2206 28.3908 29.7845 29.8743 29.7845H29.9784C33.141 29.7845 35.7048 27.2216 35.7048 24.06C35.7048 22.0576 34.6764 20.2953 33.1187 19.2723ZM29.9784 20.209L29.8743 20.209C27.7467 20.209 26.0219 21.9332 26.0219 24.06C26.0219 26.1869 27.7467 27.911 29.8743 27.911H29.9784C32.106 27.911 33.8307 26.1869 33.8307 24.06C33.8307 21.9332 32.106 20.209 29.9784 20.209ZM16.339 33.6355C16.339 31.5087 18.0637 29.7845 20.1913 29.7845H24.1478V33.5835C24.1478 35.7325 22.3801 37.4865 20.2172 37.4865C18.083 37.4865 16.339 35.7558 16.339 33.6355ZM24.1478 18.3355H20.1913C18.0637 18.3355 16.339 16.6114 16.339 14.4845C16.339 12.3576 18.0637 10.6335 20.1913 10.6335H24.1478V18.3355Z" fill="white" fill-opacity="0.6" stroke="white" stroke-opacity="0.6" stroke-width="0.4"/>
</svg>
