<svg width="49" height="48" viewBox="0 0 49 48" fill="none" xmlns="http://www.w3.org/2000/svg">
  <path
    d="M20.832 14.875V19.6875H35.707V15.75C35.707 15.3125 35.2695 14.875 34.832 14.875H20.832ZM18.207 14.875H13.832C13.3398 14.875 12.957 15.3125 12.957 15.75V19.6875H18.207V14.875ZM12.957 22.3125V26.6875H18.207V22.3125H12.957ZM12.957 29.3125V33.25C12.957 33.7422 13.3398 34.125 13.832 34.125H18.207V29.3125H12.957ZM20.832 34.125H34.832C35.2695 34.125 35.707 33.7422 35.707 33.25V29.3125H20.832V34.125ZM35.707 26.6875V22.3125H20.832V26.6875H35.707ZM10.332 15.75C10.332 13.8359 11.8633 12.25 13.832 12.25H34.832C36.7461 12.25 38.332 13.8359 38.332 15.75V33.25C38.332 35.2188 36.7461 36.75 34.832 36.75H13.832C11.8633 36.75 10.332 35.2188 10.332 33.25V15.75Z"
    fill="white" fill-opacity="0.6"/>
</svg>
