<svg width="49" height="48" viewBox="0 0 49 48" fill="none" xmlns="http://www.w3.org/2000/svg">
<path d="M28.2148 15.2031L31.332 14L32.4805 10.9375C32.5352 10.6641 32.8086 10.5 33.082 10.5C33.3008 10.5 33.5742 10.6641 33.6289 10.9375L34.832 14L37.8945 15.2031C38.168 15.2578 38.332 15.5312 38.332 15.75C38.332 16.0234 38.168 16.2969 37.8945 16.3516L34.832 17.5L33.6289 20.6172C33.5742 20.8359 33.3008 21 33.082 21C32.8086 21 32.5352 20.8359 32.4805 20.6172L31.332 17.5L28.2148 16.3516C27.9961 16.2969 27.832 16.0234 27.832 15.75C27.832 15.5312 27.9961 15.2578 28.2148 15.2031ZM10.8242 23.625L11.7539 23.2422L12.1914 23.0234H12.2461L17.0586 20.7812L19.3008 15.9141L19.5195 15.4766L19.957 14.5469C20.0664 14.2188 20.3945 14 20.7227 14C21.0508 14 21.3789 14.2188 21.543 14.5469L21.9805 15.4766L22.1445 15.9141L22.1992 15.9688L24.3867 20.7812L29.2539 23.0234L29.6914 23.2422L30.6211 23.6797C30.9492 23.7891 31.168 24.1172 31.168 24.4453C31.168 24.7734 30.9492 25.1016 30.6211 25.2656L29.6914 25.6484L29.2539 25.8672L24.3867 28.1094L22.1445 32.9219V32.9766L21.9258 33.4141L21.543 34.3438C21.3789 34.6719 21.0508 34.8906 20.7227 34.8906C20.3945 34.8906 20.0664 34.6719 19.957 34.3438L19.5195 33.4141L19.3008 32.9766V32.9219L17.0586 28.1094L12.2461 25.8672H12.1914L11.7539 25.6484L10.8242 25.2656C10.4961 25.1016 10.332 24.7734 10.332 24.4453C10.332 24.1172 10.4961 23.7891 10.8242 23.625ZM15.3633 24.4453L18.1523 25.7578C18.6992 25.9766 19.1914 26.4688 19.4648 27.0156L20.7227 29.8047L22.0352 27.0156C22.3086 26.4688 22.7461 25.9766 23.293 25.7578L26.082 24.4453L23.293 23.1328C22.7461 22.9141 22.3086 22.4219 22.0352 21.875L20.7227 19.0859L19.4648 21.875C19.1914 22.4219 18.6992 22.9141 18.1523 23.1328L15.3633 24.4453ZM31.332 31.5L32.4805 28.4375C32.5352 28.1641 32.8086 28 33.082 28C33.3008 28 33.5742 28.1641 33.6289 28.4375L34.832 31.5L37.8945 32.7031C38.168 32.7578 38.332 33.0312 38.332 33.25C38.332 33.5234 38.168 33.7969 37.8945 33.8516L34.832 35L33.6289 38.1172C33.5742 38.3359 33.3008 38.5 33.082 38.5C32.8086 38.5 32.5352 38.3359 32.4805 38.1172L31.332 35L28.2148 33.8516C27.9961 33.7969 27.832 33.5234 27.832 33.25C27.832 33.0312 27.9961 32.7578 28.2148 32.7031L31.332 31.5Z" fill="white" fill-opacity="0.6"/>
</svg>
