<svg width="18" height="18" viewBox="0 0 18 18" fill="none" xmlns="http://www.w3.org/2000/svg">
<path d="M4.25391 6.89062V14.2734C5.11084 14.1086 6.03369 14.4053 6.65991 15.0974L6.89062 15.3611L6.9895 15.1963C8.04419 14.0098 9.92285 14.0098 10.9775 15.1963L11.1094 15.3611L11.3071 15.0974C11.9333 14.4053 12.8562 14.1086 13.7461 14.2734V6.89062C13.7461 4.28687 11.6038 2.14453 9 2.14453C6.36328 2.14453 4.25391 4.28687 4.25391 6.89062ZM11.1094 17.4375C10.9116 17.4375 10.7798 17.3716 10.6479 17.2397L9.79102 16.251C9.36255 15.7566 8.60449 15.7566 8.17603 16.251L7.31909 17.2397C7.22021 17.3716 7.05542 17.4375 6.89062 17.4375C6.69287 17.4375 6.56104 17.3716 6.4292 17.2397L5.47339 16.1521C5.07788 15.7236 4.4187 15.6907 4.02319 16.0862L3.92432 16.1851C3.79248 16.3169 3.59473 16.3828 3.39697 16.3828C3.00146 16.3828 2.67188 16.0532 2.67188 15.6577V6.89062C2.67188 3.39697 5.50635 0.5625 9 0.5625C12.4937 0.5625 15.3281 3.39697 15.3281 6.89062V15.6577C15.3281 16.0532 14.9656 16.3828 14.5701 16.3828C14.3723 16.3828 14.1746 16.3169 14.0427 16.1851L13.9768 16.1191C13.5483 15.6907 12.8892 15.7236 12.4937 16.1521L11.5378 17.2397C11.439 17.3716 11.2742 17.4375 11.1094 17.4375Z" fill="#2F7FEF"/>
<path d="M5.75889 6.89062C5.75889 6.28589 6.2569 5.7523 6.89721 5.7523C7.50194 5.7523 8.03553 6.28589 8.03553 6.89062C8.03553 7.53093 7.50194 8.02895 6.89721 8.02895C6.2569 8.02895 5.75889 7.53093 5.75889 6.89062ZM9.96738 6.89062C9.96738 6.28589 10.4654 5.7523 11.1057 5.7523C11.7104 5.7523 12.244 6.28589 12.244 6.89062C12.244 7.53093 11.7104 8.02895 11.1057 8.02895C10.4654 8.02895 9.96738 7.53093 9.96738 6.89062Z" fill="#2F7FEF"/>
</svg>
