<svg xmlns="http://www.w3.org/2000/svg" width="12" height="12" viewBox="0 0 12 12" fill="none">
  <g clip-path="url(#clip0_5302_22257)">
    <path d="M4.53647 8.34204C4.52277 8.29023 4.50722 8.23806 4.49399 8.18457C4.48787 8.15984 4.4817 8.13496 4.47568 8.10986C4.49473 8.18926 4.51643 8.26625 4.53647 8.34204Z" fill="#4D607C"/>
    <path d="M7.5145 8.18457C7.50959 8.20751 7.50352 8.23006 7.49838 8.25269C7.50905 8.20567 7.5202 8.15822 7.52988 8.10986C7.52486 8.13493 7.51978 8.15987 7.5145 8.18457Z" fill="#4D607C"/>
    <path d="M4.10214 10.1753C4.06441 10.1582 4.02728 10.1399 3.99008 10.1218C3.98488 10.1193 3.97989 10.1163 3.9747 10.1138C4.01702 10.1346 4.05914 10.1558 4.10214 10.1753Z" fill="#4D607C"/>
    <path d="M2.00375 8.21387C1.99851 8.20404 1.99282 8.19444 1.98764 8.18457C1.97463 8.15975 1.96138 8.13498 1.94882 8.10986C1.96638 8.14498 1.98531 8.17933 2.00375 8.21387Z" fill="#4D607C"/>
    <path d="M8.0162 10.1218C7.97895 10.1399 7.9412 10.1582 7.90341 10.1753C7.94749 10.1554 7.99116 10.1336 8.03452 10.1123C8.02834 10.1153 8.02239 10.1188 8.0162 10.1218Z" fill="#4D607C"/>
    <path d="M10.0567 8.10986C10.0442 8.13489 10.0316 8.15984 10.0186 8.18457C10.0072 8.20637 9.99453 8.22746 9.98276 8.24902C10.0079 8.20299 10.0332 8.15695 10.0567 8.10986Z" fill="#4D607C"/>
    <path d="M1.94882 3.89111C1.9617 3.86598 1.97502 3.84054 1.98837 3.81567C1.99763 3.79843 2.00745 3.78151 2.01694 3.7644C1.99376 3.80619 1.97064 3.84852 1.94882 3.89111Z" fill="#4D607C"/>
    <path d="M3.96811 1.91064C3.97534 1.90708 3.98283 1.90392 3.99008 1.90039C4.02719 1.88235 4.06451 1.86469 4.10214 1.84766C4.05714 1.86802 4.01236 1.88883 3.96811 1.91064Z" fill="#4D607C"/>
    <path d="M7.51376 3.81567C7.5193 3.84052 7.52464 3.86596 7.52988 3.89111C7.52016 3.84446 7.5091 3.79831 7.49838 3.75269C7.50331 3.77365 7.50905 3.7945 7.51376 3.81567Z" fill="#4D607C"/>
    <path d="M4.47568 3.89111C4.48197 3.86596 4.48833 3.84052 4.49472 3.81567C4.51701 3.729 4.54137 3.64455 4.56503 3.56152C4.53458 3.66837 4.5039 3.77822 4.47568 3.89111Z" fill="#4D607C"/>
    <path d="M9.98056 3.74976C9.99289 3.77179 10.006 3.79342 10.0179 3.81567C10.0313 3.84054 10.0439 3.86598 10.0567 3.89111C10.0323 3.84346 10.0067 3.79641 9.98056 3.74976Z" fill="#4D607C"/>
    <path d="M8.0162 1.90039C8.02406 1.90421 8.03181 1.90825 8.03964 1.91211L7.90341 1.84766L8.0162 1.90039Z" fill="#4D607C"/>
    <path fill-rule="evenodd" clip-rule="evenodd" d="M6.01376 0.450195C7.98602 0.450195 9.80769 1.51231 10.8053 3.22534C11.8026 4.9601 11.8023 7.06336 10.8053 8.77563C9.80795 10.51 7.98651 11.55 6.01376 11.55C4.01903 11.5499 2.1982 10.5097 1.20102 8.77563C0.203996 7.06335 0.203657 4.9601 1.20102 3.22534C2.19845 1.51251 4.01948 0.450315 6.01376 0.450195ZM4.40317 8.12671C4.53578 8.67927 4.69132 9.1468 4.89243 9.54907C5.35822 10.4585 5.79537 10.6453 6.01376 10.6455C6.2098 10.6455 6.66923 10.4603 7.11386 9.54907C7.3141 9.14854 7.49254 8.68096 7.60385 8.12451L7.62143 8.03442H4.3812L4.40317 8.12671ZM1.82797 8.03442L1.88217 8.14282C2.35145 9.08138 3.13325 9.81898 4.07138 10.2434L4.27353 10.335L4.16879 10.1394C3.86541 9.57597 3.62564 8.88027 3.47299 8.09521L3.46127 8.03442H1.82797ZM8.54501 8.03442L8.53329 8.09521C8.38064 8.88027 8.14088 9.57597 7.83749 10.1394L7.73276 10.335L7.93491 10.2434C8.87302 9.81898 9.65484 9.08137 10.1241 8.14282L10.1783 8.03442H8.54501ZM1.49106 4.87036L1.48007 4.93188C1.41364 5.2862 1.36874 5.64285 1.36874 6.00049C1.36876 6.37621 1.39117 6.73533 1.48154 7.07422L1.49619 7.12988H3.3309L3.31992 7.04492C3.27677 6.72128 3.2767 6.37502 3.2767 6.00049C3.2767 5.64817 3.27665 5.30076 3.31992 4.95459L3.33017 4.87036H1.49106ZM4.23398 4.87036L4.22592 4.93628C4.1814 5.29246 4.18124 5.64823 4.18124 5.99829V6.00342C4.18124 6.37463 4.18134 6.73025 4.22592 7.0647L4.23471 7.12988H7.77158L7.78036 7.0647C7.82478 6.73156 7.847 6.37679 7.84702 6.00049C7.84702 5.64581 7.82469 5.29088 7.78036 4.93628L7.77231 4.87036H4.23398ZM8.67538 4.87036L8.68637 4.95459C8.72964 5.30076 8.72958 5.64817 8.72958 6.00049C8.72958 6.37501 8.72952 6.72128 8.68637 7.04492L8.67465 7.12988H10.5101L10.5247 7.07422C10.6144 6.73785 10.6595 6.37983 10.6595 6.00049C10.6595 5.64267 10.6148 5.28475 10.5255 4.92749L10.5108 4.87036H8.67538ZM4.07138 1.77881C3.13336 2.20317 2.35146 2.94047 1.88217 3.85669L1.82651 3.96582H3.46054L3.47299 3.90576C3.62564 3.14251 3.86535 2.44635 4.16879 1.88281L4.27353 1.68726L4.07138 1.77881ZM6.01376 1.35474C5.79383 1.35495 5.35707 1.56599 4.89243 2.47314C4.69136 2.8753 4.53574 3.34253 4.40317 3.8728L4.37973 3.96582H7.62216L7.60385 3.87573C7.49253 3.34141 7.31403 2.87356 7.11386 2.47314C6.89091 2.01625 6.66591 1.73776 6.47226 1.573C6.28001 1.40944 6.11441 1.35474 6.01376 1.35474ZM7.83749 1.88281C8.14093 2.44635 8.38064 3.14251 8.53329 3.90576L8.54575 3.96582H10.1798L10.1241 3.85669C9.65484 2.94048 8.8729 2.20317 7.93491 1.77881L7.73276 1.68726L7.83749 1.88281Z" fill="#4D607C"/>
  </g>
  <defs>
    <clipPath id="clip0_5302_22257">
      <rect width="12" height="12" fill="white"/>
    </clipPath>
  </defs>
</svg>
