<svg width="113" height="32" viewBox="0 0 113 32" fill="none" xmlns="http://www.w3.org/2000/svg">
<g clip-path="url(#clip0_4346_24543)">
<path d="M10.2546 12.865C11.2 11.332 12.476 10.5426 14.3027 10.5426C17.0658 10.5426 18.9384 12.6263 18.9384 15.5546V24.3027H15.3859V16.0687C15.3859 14.6275 14.5598 13.6085 13.0635 13.6085C11.503 13.6085 10.3463 14.8661 10.3463 16.6837V24.3027H6.80304V10.9006H10.2821C10.2546 10.9006 10.2546 12.507 10.2546 12.865ZM90.4196 12.865C91.3651 11.332 92.641 10.5426 94.4678 10.5426C97.2308 10.5426 99.1034 12.6263 99.1034 15.5546V24.3027H95.5509V16.0687C95.5509 14.6275 94.7248 13.6085 93.2285 13.6085C91.668 13.6085 90.5114 14.8661 90.5114 16.6837V24.3027H86.9589V10.9006H90.4379C90.4196 10.9006 90.4196 12.507 90.4196 12.865ZM27.76 17.5925C27.76 13.6177 30.4312 10.5426 34.5253 10.5426C38.5184 10.5426 40.9143 13.4066 40.8684 17.6384C40.8684 17.9964 40.8684 18.2809 40.8408 18.6298H31.2574C31.5144 20.686 32.4874 21.9619 34.4977 21.9619C35.6085 21.9619 36.6458 21.3928 37.169 20.328H40.6021C40.1065 22.7147 37.9493 24.725 34.4977 24.725C30.0732 24.7158 27.76 21.5856 27.76 17.5925ZM31.3308 16.1513H37.3434C37.2516 14.4439 36.1409 13.2689 34.5253 13.2689C32.6527 13.2873 31.5878 14.5449 31.3308 16.1513ZM68.7558 13.1955L68.8293 13.0302C69.6371 11.5156 70.555 10.7354 72.1155 10.7354C72.5195 10.7354 72.7581 10.7629 72.9417 10.8271V13.9482H72.8683C70.5458 13.7095 68.8752 14.9396 68.8752 17.7577V24.3119H65.3227V10.9006H68.7558V13.1955ZM81.5246 22.8891C80.983 23.7428 79.9916 24.6148 77.7151 24.6148C74.9704 24.6148 73.006 23.2471 73.006 20.5666C73.006 17.6108 75.3468 16.5919 78.3301 16.188C80.5516 15.8851 81.4787 15.6923 81.4787 14.6734C81.4787 13.7003 80.8178 13.0853 79.3307 13.0853C77.6508 13.0853 76.944 13.6728 76.843 14.9763H73.6761C73.7679 12.6355 75.4477 10.5518 79.349 10.5518C83.3697 10.5518 85.022 12.351 85.022 15.4995V22.3383C85.022 23.3572 85.1872 24.0916 85.4993 24.3211H81.9469C81.7633 24.0457 81.5705 23.3664 81.5246 22.8891ZM81.5705 19.5753V17.5649C80.9279 17.9229 80.0834 18.1341 79.1838 18.3452C77.3387 18.7675 76.5585 19.1714 76.5585 20.429C76.5585 21.6866 77.2469 22.1364 78.4953 22.1364C80.5332 22.1364 81.5705 20.8788 81.5705 19.5753ZM1.14844 7.27466V24.3027H4.70092V7.27466H1.14844ZM25.208 20.3555V13.2873H27.5029V10.9006H25.208V7.27466H21.6831V10.8914H19.838V13.2781H21.6831V21.1082C21.6831 23.6418 23.6475 24.3211 25.3733 24.3211C26.7961 24.3211 27.5947 24.2752 27.5947 24.2752V21.6498C27.5947 21.6498 27.0072 21.6774 26.5574 21.6774C25.7496 21.6866 25.208 21.3561 25.208 20.3555ZM58.3646 10.515C56.6572 10.5426 55.2894 11.2219 54.5551 12.3601V7.27466H51.0026V24.3027H54.4357V22.9074C55.216 24.165 56.5654 24.6791 58.1535 24.6791C61.8436 24.6791 64.0192 22.0262 64.0192 17.6292C64.0192 13.2322 61.7518 10.4967 58.3646 10.515ZM57.5384 21.8059C55.4547 21.8059 54.4908 20.1719 54.4908 17.7118C54.4908 15.2242 55.2986 13.4341 57.5384 13.4341C59.5212 13.4341 60.4024 15.1599 60.4024 17.6476C60.43 20.1903 59.3835 21.8059 57.5384 21.8059ZM45.6876 13.1955L45.7611 13.0302C46.5689 11.5156 47.4868 10.7354 49.0473 10.7354C49.4512 10.7354 49.6899 10.7629 49.8735 10.8271V13.9482H49.8001C47.4776 13.7095 45.807 14.9396 45.807 17.7577V24.3119H42.2545V10.9006H45.6876V13.1955ZM100.398 17.62C100.398 22.0446 102.647 24.6699 106.309 24.6699C107.897 24.6699 109.293 24.1742 110.073 22.8983V24.2935H113.506V7.27466H109.954V12.3601C109.219 11.2219 107.824 10.5426 106.098 10.515C102.748 10.4967 100.398 13.2414 100.398 17.62ZM103.996 17.62C103.996 15.1324 104.914 13.4066 106.906 13.4066C109.155 13.4066 110.009 15.2058 110.009 17.6843C110.009 20.1444 108.99 21.8701 106.906 21.8701C105.107 21.8977 103.996 20.1903 103.996 17.62Z" fill="white" fill-opacity="0.6"/>
</g>
<defs>
<clipPath id="clip0_4346_24543">
<rect width="113" height="32" fill="white"/>
</clipPath>
</defs>
</svg>
