<svg width="21" height="32" viewBox="0 0 21 32" fill="none" xmlns="http://www.w3.org/2000/svg">
<path fill-rule="evenodd" clip-rule="evenodd" d="M9.66838 4.53994H6.55253C4.83168 4.53994 3.43667 5.93495 3.43667 7.6558C3.43667 9.37664 4.83168 10.7717 6.55253 10.7717H9.66838V4.53994ZM9.66838 2.42749H11.7808H14.8967C17.7843 2.42749 20.1249 4.76827 20.1249 7.6558C20.1249 9.35978 19.3099 10.8734 18.0481 11.8279C19.3099 12.7824 20.1249 14.296 20.1249 16C20.1249 18.8875 17.7843 21.2283 14.8967 21.2283C13.7292 21.2283 12.651 20.8456 11.7808 20.1988V21.2283V24.3441C11.7808 27.2316 9.44003 29.5724 6.55253 29.5724C3.665 29.5724 1.32422 27.2316 1.32422 24.3441C1.32422 22.64 2.13937 21.1266 3.40101 20.172C2.13937 19.2175 1.32422 17.7039 1.32422 16C1.32422 14.296 2.13939 12.7824 3.40105 11.8279C2.13939 10.8734 1.32422 9.35978 1.32422 7.6558C1.32422 4.76827 3.665 2.42749 6.55253 2.42749H9.66838ZM11.7808 4.53994V10.7717H14.8967C16.6176 10.7717 18.0124 9.37664 18.0124 7.6558C18.0124 5.93495 16.6176 4.53994 14.8967 4.53994H11.7808ZM6.55253 19.1158H9.66838V16.008V16V15.992V12.8841H6.55253C4.83168 12.8841 3.43667 14.2791 3.43667 16C3.43667 17.7167 4.82501 19.1092 6.54017 19.1158L6.55253 19.1158ZM3.43667 24.3441C3.43667 22.6274 4.82501 21.2349 6.54017 21.2283L6.55253 21.2283H9.66838V24.3441C9.66838 26.0649 8.27337 27.46 6.55253 27.46C4.83168 27.46 3.43667 26.0649 3.43667 24.3441ZM11.7808 15.9938C11.7842 14.2758 13.1779 12.8841 14.8967 12.8841C16.6176 12.8841 18.0124 14.2791 18.0124 16C18.0124 17.7208 16.6176 19.1158 14.8967 19.1158C13.1779 19.1158 11.7842 17.7242 11.7808 16.0062V15.9938Z" fill="white" fill-opacity="0.6"/>
</svg>
