<svg width="80" height="32" viewBox="0 0 80 32" fill="none" xmlns="http://www.w3.org/2000/svg">
<path fill-rule="evenodd" clip-rule="evenodd" d="M50.0035 26.4373C45.5176 29.7495 39.0151 31.5086 33.4152 31.5086C25.9324 31.5473 18.7048 28.7905 13.1486 23.7782C12.7312 23.3988 13.1052 22.881 13.6094 23.1765C19.7844 26.7055 26.7745 28.5593 33.8868 28.5542C39.2002 28.5285 44.4562 27.4535 49.353 25.391C50.112 25.0684 50.7571 25.8897 50.0035 26.4373Z" fill="white" fill-opacity="0.6"/>
<path fill-rule="evenodd" clip-rule="evenodd" d="M51.8725 24.3069C51.2978 23.5724 48.0777 23.96 46.633 24.1334C46.1966 24.1849 46.1262 23.8028 46.5219 23.5263C49.0888 21.7211 53.2982 22.2415 53.7861 22.8459C54.274 23.4504 53.6587 27.6734 51.2518 29.6873C50.8804 29.9963 50.5281 29.831 50.6934 29.4162C51.2328 28.0691 52.4471 25.0415 51.8725 24.3069Z" fill="white" fill-opacity="0.6"/>
<path fill-rule="evenodd" clip-rule="evenodd" d="M46.733 10.7841V9.03313C46.7311 8.97424 46.7413 8.91559 46.763 8.86081C46.7847 8.80603 46.8174 8.75627 46.859 8.71461C46.9007 8.67295 46.9504 8.64027 47.0052 8.6186C47.06 8.59693 47.1186 8.58672 47.1775 8.5886H55.038C55.0973 8.58715 55.1563 8.59758 55.2115 8.61927C55.2667 8.64096 55.317 8.67348 55.3594 8.7149C55.4018 8.75632 55.4355 8.80582 55.4586 8.86047C55.4816 8.91512 55.4934 8.97383 55.4934 9.03313V10.5348C55.4934 10.7868 55.2793 11.1175 54.9025 11.6379L50.8367 17.4466C52.3492 17.4113 53.9457 17.639 55.3172 18.4088C55.4402 18.4772 55.5433 18.5764 55.6165 18.6966C55.6896 18.8168 55.7303 18.9539 55.7346 19.0946V20.9648C55.7346 21.2359 55.4636 21.5205 55.1573 21.3633C53.873 20.7036 52.4494 20.3608 51.0055 20.3636C49.5617 20.3664 48.1394 20.7148 46.8577 21.3795C46.5866 21.5259 46.2966 21.2305 46.2966 20.973V19.1949C46.2719 18.7735 46.3738 18.3543 46.5893 17.9914L51.2975 11.2259H47.1857C47.1265 11.2281 47.0676 11.2183 47.0124 11.197C46.9572 11.1757 46.9069 11.1435 46.8645 11.1021C46.8222 11.0608 46.7887 11.0113 46.7661 10.9566C46.7435 10.902 46.7322 10.8433 46.733 10.7841Z" fill="white" fill-opacity="0.6"/>
<path fill-rule="evenodd" clip-rule="evenodd" d="M18.0858 21.7185H15.6978C15.5898 21.7138 15.4871 21.6705 15.4085 21.5963C15.3298 21.5221 15.2805 21.4222 15.2695 21.3146V9.06306C15.2706 9.00374 15.2834 8.94521 15.3071 8.89084C15.3309 8.83647 15.3652 8.78735 15.408 8.74628C15.4508 8.70522 15.5014 8.67303 15.5567 8.65157C15.612 8.63011 15.671 8.61981 15.7303 8.62124H17.9638C18.074 8.62484 18.1791 8.66879 18.259 8.74474C18.339 8.82069 18.3882 8.92336 18.3975 9.03325V10.6352H18.4436C19.0236 9.08745 20.1159 8.36375 21.5878 8.36375C23.0596 8.36375 24.0272 9.08745 24.6886 10.6352C24.9096 10.0513 25.2818 9.5366 25.767 9.14379C26.2523 8.75097 26.8332 8.49414 27.4503 8.39956C28.0674 8.30498 28.6985 8.37605 29.2792 8.6055C29.8598 8.83496 30.369 9.21456 30.7547 9.70545C31.5137 10.7382 31.3565 12.2344 31.3565 13.5517V21.2902C31.3554 21.3495 31.3426 21.4081 31.3189 21.4624C31.2951 21.5168 31.2608 21.5659 31.218 21.607C31.1752 21.6481 31.1246 21.6802 31.0693 21.7017C31.014 21.7232 30.955 21.7335 30.8957 21.732H28.5077C28.3936 21.7279 28.2855 21.6799 28.2057 21.5982C28.126 21.5164 28.0808 21.4071 28.0795 21.2929V14.7877C28.0795 14.2727 28.1228 12.9825 28.0117 12.4919C27.8328 11.6787 27.2988 11.4321 26.6076 11.4321C26.2968 11.4412 25.9956 11.5418 25.7416 11.7211C25.4875 11.9004 25.2919 12.1506 25.1792 12.4404C24.9325 13.0584 24.9569 14.0911 24.9569 14.7877V21.2929C24.9541 21.4125 24.904 21.5261 24.8177 21.6089C24.7313 21.6917 24.6157 21.7369 24.4961 21.7347H22.1082C21.9941 21.7306 21.8859 21.6826 21.8062 21.6009C21.7264 21.5191 21.6812 21.4098 21.6799 21.2956V14.7904C21.6799 13.4216 21.9022 11.4104 20.2081 11.4104C18.514 11.4104 18.5574 13.3701 18.5574 14.7904V21.2956C18.5543 21.3544 18.5396 21.412 18.5142 21.465C18.4888 21.5181 18.4531 21.5657 18.4093 21.6049C18.3655 21.6442 18.3144 21.6745 18.2589 21.694C18.2033 21.7134 18.1445 21.7218 18.0858 21.7185Z" fill="white" fill-opacity="0.6"/>
<path fill-rule="evenodd" clip-rule="evenodd" d="M62.25 8.3606C65.798 8.3606 67.7144 11.4072 67.7144 15.2778C67.7144 19.0211 65.5975 21.9891 62.25 21.9891C58.7697 21.9891 56.875 18.9425 56.875 15.1477C56.875 11.353 58.7941 8.3606 62.25 8.3606ZM62.2716 10.8651C60.5098 10.8651 60.3987 13.2639 60.3987 14.7628C60.3987 16.2618 60.377 19.4575 62.25 19.4575C64.1229 19.4575 64.1907 16.877 64.1907 15.3049C64.1907 14.2722 64.1473 13.0335 63.8329 12.0523C63.5673 11.2012 63.0306 10.876 62.2716 10.876V10.8651Z" fill="white" fill-opacity="0.6"/>
<path fill-rule="evenodd" clip-rule="evenodd" d="M72.3081 21.7183H69.9283C69.8141 21.7142 69.706 21.6662 69.6263 21.5845C69.5465 21.5027 69.5013 21.3934 69.5 21.2792V9.00871C69.514 8.89711 69.5689 8.79467 69.654 8.7211C69.739 8.64753 69.8483 8.60805 69.9608 8.61027H72.1672C72.2658 8.61377 72.3607 8.64923 72.4374 8.71131C72.5142 8.7734 72.5687 8.85875 72.5927 8.95451V10.8302H72.6388C73.3056 9.15237 74.2434 8.35277 75.8914 8.35277C76.4423 8.32708 76.9902 8.44711 77.4799 8.70076C77.9696 8.9544 78.3837 9.33269 78.6805 9.79747C79.304 10.7787 79.304 12.4321 79.304 13.6193V21.3362C79.2875 21.4451 79.2319 21.5442 79.1476 21.6151C79.0633 21.6859 78.956 21.7236 78.8459 21.7211H76.4498C76.3453 21.716 76.2458 21.6748 76.1682 21.6047C76.0906 21.5345 76.0398 21.4396 76.0242 21.3362V14.6845C76.0242 13.3428 76.1814 11.3804 74.5307 11.3804C74.2303 11.3935 73.94 11.493 73.6948 11.6671C73.4495 11.8411 73.2598 12.0823 73.1484 12.3616C72.8533 13.0988 72.7237 13.8918 72.7689 14.6845V21.2874C72.7619 21.4046 72.7103 21.5146 72.6245 21.5948C72.5388 21.675 72.4255 21.7192 72.3081 21.7183Z" fill="white" fill-opacity="0.6"/>
<path fill-rule="evenodd" clip-rule="evenodd" d="M40.4759 15.8746C40.4759 16.8043 40.4976 17.5795 40.0286 18.409C39.8755 18.7218 39.6409 18.9877 39.3494 19.1784C39.058 19.3692 38.7205 19.478 38.3725 19.4932C37.4564 19.4932 36.9197 18.7966 36.9197 17.7611C36.9197 15.7255 38.7466 15.3569 40.4759 15.3569V15.8746ZM42.8991 21.6995C42.8216 21.7656 42.7257 21.8063 42.6244 21.816C42.523 21.8257 42.4212 21.8039 42.3326 21.7537C41.7831 21.3113 41.3192 20.7721 40.9638 20.1627C39.6519 21.499 38.7222 21.9001 37.0227 21.9001C35.0115 21.9001 33.4475 20.6587 33.4475 18.1759C33.4202 17.3421 33.65 16.52 34.1058 15.8213C34.5616 15.1226 35.2213 14.581 35.9954 14.27C37.291 13.7008 39.1016 13.5978 40.4894 13.4568V13.1451C40.4894 12.5759 40.5328 11.9037 40.1994 11.4131C40.041 11.2072 39.8348 11.043 39.5987 10.9349C39.3625 10.8267 39.1035 10.7778 38.8441 10.7924C37.9307 10.7924 37.123 11.2586 36.9224 12.2263C36.9104 12.3346 36.8634 12.436 36.7886 12.5153C36.7137 12.5945 36.6151 12.6472 36.5077 12.6654L34.1929 12.416C34.1355 12.4086 34.0803 12.3895 34.0307 12.3597C33.9811 12.33 33.9382 12.2904 33.9046 12.2433C33.871 12.1963 33.8475 12.1428 33.8355 12.0862C33.8236 12.0296 33.8234 11.9712 33.8351 11.9145C34.3772 9.10645 36.9034 8.25806 39.1775 8.25806C40.3403 8.25806 41.8609 8.56706 42.7771 9.44527C43.9399 10.5295 43.8288 11.9823 43.8288 13.5598V17.2814C43.8288 18.4008 44.2923 18.8941 44.7314 19.4959C44.8151 19.5802 44.8622 19.6942 44.8622 19.813C44.8622 19.9318 44.8151 20.0458 44.7314 20.1301C44.2435 20.5394 43.3761 21.293 42.8991 21.7185V21.6995Z" fill="white" fill-opacity="0.6"/>
<path fill-rule="evenodd" clip-rule="evenodd" d="M9.14958 15.8743C9.14958 16.804 9.17127 17.5792 8.70235 18.4086C8.54943 18.7211 8.31523 18.9866 8.0243 19.1774C7.73338 19.3682 7.39647 19.4771 7.04893 19.4928C6.13277 19.4928 5.59609 18.7962 5.59609 17.7608C5.59609 15.7252 7.42027 15.3565 9.14958 15.3565V15.8743ZM11.5592 21.6992C11.4818 21.7652 11.3859 21.8059 11.2845 21.8156C11.1832 21.8253 11.0813 21.8036 10.9927 21.7534C10.444 21.3102 9.98019 20.7711 9.62392 20.1623C8.31203 21.4986 7.38232 21.8997 5.68554 21.8997C3.67162 21.8997 2.10765 20.6583 2.10765 18.1755C2.08033 17.3417 2.31015 16.5197 2.76594 15.821C3.22174 15.1222 3.88144 14.5806 4.65554 14.2696C5.95388 13.7004 7.76451 13.5974 9.14958 13.4565V13.1448C9.14958 12.5755 9.19295 11.9033 8.85956 11.4127C8.7012 11.2068 8.49499 11.0427 8.25882 10.9345C8.02265 10.8263 7.76365 10.7774 7.5043 10.792C6.59356 10.792 5.78312 11.2582 5.58254 12.2259C5.57052 12.3342 5.52354 12.4357 5.44871 12.5149C5.37388 12.5941 5.27528 12.6468 5.16783 12.665L2.85304 12.4156C2.79589 12.4061 2.74132 12.3848 2.69271 12.3533C2.6441 12.3218 2.60249 12.2806 2.57046 12.2323C2.53844 12.184 2.51668 12.1296 2.50654 12.0726C2.4964 12.0155 2.49809 11.957 2.51152 11.9006C3.05362 9.09253 5.58254 8.24414 7.85667 8.24414C9.01677 8.24414 10.5374 8.55314 11.4535 9.43135C12.6163 10.5156 12.5052 11.9684 12.5052 13.5459V17.2675C12.5052 18.3869 12.9714 18.8802 13.4078 19.482C13.4916 19.5663 13.5386 19.6803 13.5386 19.7991C13.5386 19.9179 13.4916 20.0319 13.4078 20.1162C12.9199 20.5255 12.0526 21.279 11.5755 21.7046L11.5592 21.6992Z" fill="white" fill-opacity="0.6"/>
</svg>
