<svg width="96" height="32" viewBox="0 0 96 32" fill="none" xmlns="http://www.w3.org/2000/svg">
<path d="M35.8281 7.02271H39.42L45.5276 18.0722L51.6352 7.02271H55.1495V25.1783H52.2193V11.2641L46.863 20.8981H44.1146L38.7583 11.2641V25.1783H35.8281V7.02271Z" fill="white" fill-opacity="0.6"/>
<path d="M64.6005 25.5007C63.3514 25.5264 62.1183 25.2159 61.0304 24.6015C60.0114 24.0105 59.1785 23.1456 58.6262 22.1051C58.0356 20.978 57.7388 19.7201 57.7633 18.4478C57.7372 17.1637 58.0268 15.8929 58.6068 14.7469C59.139 13.7076 59.9496 12.8366 60.948 12.2312C61.9893 11.614 63.1819 11.2993 64.392 11.3223C65.5494 11.2767 66.6931 11.585 67.6708 12.2059C68.6485 12.8268 69.4138 13.7309 69.8647 14.7978C70.39 16.0166 70.6462 17.3343 70.616 18.6611V19.4658H60.679C60.7985 20.467 61.266 21.3943 61.9999 22.0857C62.7484 22.7342 63.715 23.0746 64.7047 23.0382C65.4751 23.0562 66.2415 22.9236 66.9611 22.648C67.6218 22.369 68.2244 21.9686 68.7377 21.4677L70.2936 23.3727C68.7457 24.7914 66.848 25.4999 64.6005 25.4982M66.7406 14.7299C66.4239 14.4136 66.0449 14.1667 65.6277 14.0048C65.2104 13.8429 64.764 13.7696 64.3169 13.7896C63.8685 13.7799 63.4227 13.8607 63.0063 14.0273C62.5899 14.1939 62.2113 14.4428 61.8933 14.759C61.2096 15.4611 60.7746 16.3677 60.6548 17.3402H67.7876C67.7003 16.2334 67.3505 15.3666 66.7381 14.7396" fill="white" fill-opacity="0.6"/>
<path d="M74.1643 14.0513H71.457V11.6519H74.1546V7.68433H76.9805V11.6519H81.079V14.0513H76.9902V20.1322C76.9902 21.1437 77.1631 21.8652 77.5089 22.2966C77.8547 22.728 78.4469 22.9445 79.2854 22.9461C79.6019 22.9488 79.9184 22.9334 80.2331 22.9001C80.4932 22.8694 80.7784 22.8281 81.0886 22.7764V25.1492C80.7336 25.255 80.3716 25.336 80.0053 25.3916C79.5864 25.4528 79.1635 25.4828 78.7401 25.4812C75.6879 25.4812 74.1618 23.813 74.1618 20.4764L74.1643 14.0513Z" fill="white" fill-opacity="0.6"/>
<path d="M95.8141 25.1687H93.039V23.2758C92.5604 23.9725 91.9134 24.537 91.1582 24.9167C90.3516 25.3115 89.4628 25.5092 88.5649 25.4935C87.4405 25.5133 86.3361 25.195 85.3948 24.5798C84.4544 23.9529 83.7007 23.0837 83.2135 22.064C82.6698 20.921 82.3993 19.6673 82.4233 18.4019C82.4028 17.1367 82.6809 15.8845 83.2353 14.747C83.7343 13.7249 84.5038 12.859 85.4602 12.2433C86.436 11.6294 87.5697 11.3135 88.7224 11.3345C89.5824 11.3204 90.4341 11.5045 91.2115 11.8725C91.9362 12.2236 92.5637 12.747 93.039 13.397V11.6592H95.8141V25.1687ZM92.9881 16.3781C92.7088 15.638 92.2088 15.0017 91.5557 14.5555C90.8878 14.1052 90.0974 13.8716 89.292 13.8866C88.0818 13.8866 87.118 14.2905 86.4006 15.0984C85.6832 15.9063 85.3245 17.0042 85.3245 18.3922C85.3245 19.7833 85.6702 20.8853 86.3618 21.698C87.0533 22.5108 87.9913 22.9147 89.1757 22.9099C90.0034 22.9231 90.8163 22.6885 91.5096 22.2361C92.1808 21.8011 92.698 21.166 92.9881 20.4208V16.3781Z" fill="white" fill-opacity="0.6"/>
<path d="M4.15346 18.9883C4.15346 14.313 6.48502 9.53599 9.26496 9.53599C10.77 9.53599 12.0279 10.4061 13.9547 13.1715C12.1249 15.9781 11.0173 17.7377 11.0173 17.7377C8.58149 21.5573 7.73805 22.4129 6.38081 22.4129C4.98478 22.4129 4.15589 21.1865 4.15589 19.0004M20.215 17.2553L18.5185 14.4439C18.0628 13.7023 17.625 13.0196 17.2049 12.3959C18.7245 10.0522 19.9751 8.88403 21.4656 8.88403C24.5607 8.88403 27.0401 13.4405 27.0401 19.0392C27.0401 21.172 26.3421 22.4105 24.8927 22.4105C23.5039 22.4105 22.8423 21.4943 20.2054 17.2529M15.7991 10.4497C13.5064 7.54132 11.5917 6.41917 9.29647 6.41917C4.62123 6.41917 1.03906 12.505 1.03906 18.9446C1.03906 22.9752 2.97799 25.5176 6.25478 25.5176C8.60573 25.5176 10.295 24.41 13.3003 19.1555L15.4162 15.4182C15.7184 15.9029 16.0367 16.4281 16.3711 16.9936L17.7793 19.3639C20.5253 23.9689 22.0546 25.5152 24.8248 25.5152C28.0071 25.5152 29.7764 22.9388 29.7764 18.8234C29.7764 12.0808 26.1118 6.41675 21.662 6.41675C19.3062 6.41675 17.4642 8.19087 15.7967 10.4473" fill="white" fill-opacity="0.6"/>
</svg>
