<svg width="32" height="32" viewBox="0 0 32 32" fill="none" xmlns="http://www.w3.org/2000/svg">
<path d="M28.3121 10.1412C28.3121 10.4215 28.3121 10.6458 28.3121 10.9261C28.3121 18.7192 22.4253 27.6336 11.6046 27.6336C8.24073 27.6336 5.15713 26.6805 2.57812 24.9985C3.02665 25.0546 3.47517 25.1106 3.97976 25.1106C6.72696 25.1106 9.2499 24.1575 11.2683 22.5877C8.68925 22.5316 6.5027 20.8497 5.77385 18.4949C6.16631 18.551 6.5027 18.607 6.89516 18.607C7.39974 18.607 7.9604 18.4949 8.40892 18.3828C5.71778 17.8221 3.69943 15.4674 3.69943 12.6081V12.552C4.48435 13.0005 5.43746 13.2248 6.39057 13.2808C4.76467 12.2156 3.7555 10.4215 3.7555 8.40316C3.7555 7.28185 4.03582 6.27268 4.54041 5.4317C7.45581 8.96381 11.8289 11.3186 16.7066 11.5989C16.5945 11.1504 16.5384 10.7018 16.5384 10.2533C16.5384 7.00153 19.1735 4.36646 22.4253 4.36646C24.1072 4.36646 25.621 5.03924 26.7423 6.21661C28.0318 5.93628 29.3213 5.4317 30.4426 4.75891C29.9941 6.16055 29.097 7.28185 27.8636 8.0107C29.041 7.89857 30.2183 7.56218 31.2275 7.11366C30.4426 8.29103 29.4334 9.3002 28.3121 10.1412Z" fill="white" fill-opacity="0.6"/>
</svg>
