<svg width="164" height="32" viewBox="0 0 164 32" fill="none" xmlns="http://www.w3.org/2000/svg">
<path d="M8.57635 16.6454L17.6464 7.58502C18.2592 6.97553 19.0883 6.63339 19.9525 6.63339C20.8168 6.63339 21.6459 6.97553 22.2587 7.58502L22.9636 8.2899L24.3765 6.87693L23.6717 6.16883C22.6833 5.18256 21.344 4.62866 19.9477 4.62866C18.5514 4.62866 17.2122 5.18256 16.2238 6.16883L7.16016 15.2325L8.57635 16.6454Z" fill="white" fill-opacity="0.6" stroke="white" stroke-opacity="0.6" stroke-width="0.332"/>
<path d="M20.6823 10.5687L19.2693 9.15576L10.196 18.229C9.58311 18.8415 8.752 19.1854 7.88552 19.1851C7.01904 19.1848 6.18817 18.8403 5.57569 18.2274C4.96321 17.6145 4.61929 16.7834 4.6196 15.9169C4.6199 15.0505 4.96439 14.2196 5.5773 13.6071L13.405 5.77943L11.992 4.36646L4.16433 12.1941C3.66602 12.6809 3.26924 13.2617 2.99697 13.9029C2.72471 14.5441 2.58238 15.2329 2.57822 15.9295C2.57406 16.6261 2.70815 17.3165 2.97274 17.9609C3.23732 18.6053 3.62713 19.1908 4.1196 19.6835C4.61206 20.1762 5.19738 20.5662 5.84166 20.8311C6.48594 21.096 7.17637 21.2304 7.87296 21.2265C8.56954 21.2226 9.25844 21.0806 9.89974 20.8086C10.541 20.5366 11.122 20.1401 11.609 19.642L20.6823 10.5687ZM29.7137 12.1941C28.7249 11.2086 27.3858 10.6553 25.9898 10.6553C24.5937 10.6553 23.2546 11.2086 22.2658 12.1941L13.1925 21.2674L14.6055 22.6804L23.6788 13.6071C24.1359 13.151 24.7178 12.8405 25.3513 12.7149C25.9847 12.5893 26.6411 12.6543 27.2376 12.9016C27.8341 13.1489 28.344 13.5674 28.7028 14.1043C29.0615 14.6412 29.2532 15.2723 29.2534 15.9181C29.2551 16.3483 29.1705 16.7744 29.0047 17.1713C28.8388 17.5683 28.5951 17.9279 28.2879 18.229L20.4698 26.0567L21.886 27.4697L29.7137 19.642C30.7 18.6536 31.2539 17.3144 31.2539 15.9181C31.2539 14.5218 30.7 13.1825 29.7137 12.1941Z" fill="white" fill-opacity="0.6" stroke="white" stroke-opacity="0.6" stroke-width="0.332"/>
<path d="M25.3053 15.191L16.232 24.2611C15.6184 24.8728 14.7874 25.2162 13.921 25.2162C13.0546 25.2162 12.2236 24.8728 11.61 24.2611L10.9052 23.553L9.49219 24.966L10.1971 25.6741C11.1859 26.6596 12.525 27.2129 13.921 27.2129C15.317 27.2129 16.6561 26.6596 17.6449 25.6741L26.7182 16.5976L25.3053 15.191Z" fill="white" fill-opacity="0.6" stroke="white" stroke-opacity="0.6" stroke-width="0.332"/>
<path d="M39.5442 18.3581C39.6371 18.8963 39.9303 19.3793 40.365 19.7099C40.8636 20.0549 41.4621 20.2257 42.0676 20.196C42.644 20.2327 43.2147 20.0626 43.6769 19.7164C43.8612 19.5631 44.008 19.3697 44.1062 19.1511C44.2044 18.9324 44.2513 18.6942 44.2434 18.4547C44.2499 18.2306 44.1977 18.0087 44.0921 17.811C43.9863 17.6315 43.841 17.4785 43.6673 17.3636C43.46 17.226 43.2347 17.1176 42.9978 17.0417L42.103 16.7713L41.2501 16.5396C40.7773 16.4143 40.3171 16.2451 39.8758 16.0343C39.4968 15.8551 39.1465 15.6208 38.8361 15.3391C38.5593 15.082 38.34 14.7695 38.1924 14.4218C38.035 14.0392 37.9583 13.6283 37.9671 13.2148C37.9625 12.7566 38.0616 12.3033 38.2568 11.8887C38.445 11.4853 38.7236 11.1306 39.0711 10.8523C39.4533 10.5464 39.8902 10.3159 40.3585 10.1732C40.9058 9.99977 41.4775 9.91608 42.0515 9.92534C43.2338 9.92534 44.1705 10.2043 44.8614 10.7622C45.2038 11.0379 45.4878 11.3792 45.6967 11.7661C45.9056 12.153 46.0353 12.5776 46.078 13.0152L44.1469 13.1729C44.0513 12.7298 43.8029 12.3345 43.4452 12.0561C43.0115 11.7662 42.495 11.626 41.9743 11.657C41.4829 11.6281 40.9969 11.7715 40.5999 12.0625C40.4414 12.1861 40.314 12.345 40.2279 12.5267C40.1418 12.7083 40.0995 12.9076 40.1043 13.1086C40.0963 13.3228 40.1464 13.5352 40.2491 13.7233C40.3526 13.897 40.4947 14.0445 40.6643 14.1546C40.8711 14.2891 41.0938 14.3972 41.3273 14.4765C41.5881 14.573 41.8842 14.676 42.2125 14.7822L43.03 15.0365C43.5385 15.1974 43.9988 15.3648 44.4108 15.5386C44.7896 15.6998 45.1422 15.9167 45.4568 16.1823C45.7404 16.4224 45.9669 16.7225 46.1199 17.061C46.2855 17.4605 46.3644 17.8905 46.3516 18.3227C46.357 18.828 46.2469 19.3277 46.0297 19.784C45.8203 20.2222 45.5144 20.6073 45.135 20.9105C44.7272 21.2329 44.2635 21.4773 43.7671 21.6315C43.2014 21.8074 42.6116 21.8932 42.0193 21.8857C40.9718 21.9248 39.9385 21.6343 39.0647 21.0553C38.6568 20.7601 38.3152 20.3828 38.0618 19.9477C37.8085 19.5125 37.6491 19.0292 37.5938 18.5287L39.5442 18.3581ZM54.4947 9.95753C55.3043 9.94705 56.1081 10.0958 56.8604 10.3953C57.5475 10.6704 58.1676 11.0897 58.6789 11.6248C59.192 12.1704 59.5894 12.8141 59.8473 13.5173C60.1303 14.2903 60.271 15.1082 60.2625 15.9313C60.274 16.7695 60.1243 17.6022 59.8215 18.3839C59.5392 19.0944 59.113 19.7387 58.5695 20.2764L60.1015 22.0692V22.626H58.1704L57.0986 21.316C56.7103 21.5018 56.3036 21.6464 55.8851 21.7473C55.4335 21.8439 54.9727 21.8914 54.5108 21.8889C53.6919 21.8939 52.8802 21.7363 52.1226 21.4255C51.4394 21.1485 50.8237 20.7281 50.3169 20.1927C49.8101 19.6496 49.4191 19.009 49.1679 18.3098C48.8903 17.5445 48.7519 16.7357 48.7591 15.9216C48.7511 15.1022 48.8895 14.288 49.1679 13.5173C49.4207 12.8158 49.8151 12.1738 50.3266 11.6312C50.8367 11.096 51.4542 10.6748 52.1387 10.3953C52.8865 10.0922 53.6879 9.94334 54.4947 9.95753ZM54.4786 11.6827C53.9472 11.6745 53.4206 11.7844 52.9369 12.0046C52.4925 12.2099 52.0998 12.5124 51.7879 12.8897C51.4635 13.2854 51.2186 13.74 51.0669 14.2286C50.899 14.7727 50.8165 15.3394 50.8223 15.9088C50.8166 16.483 50.9025 17.0545 51.0765 17.6017C51.2324 18.0948 51.4791 18.5544 51.8039 18.9568C52.1154 19.3387 52.5079 19.6465 52.953 19.858C53.4362 20.0797 53.9632 20.1897 54.4947 20.1799C55.0258 20.185 55.5517 20.0752 56.0364 19.858C56.48 19.6571 56.8727 19.359 57.1855 18.9857C57.5141 18.5895 57.7612 18.1323 57.9129 17.6404C58.089 17.0802 58.1758 16.4959 58.1704 15.9088C58.1753 15.3301 58.0884 14.7543 57.9129 14.2029C57.759 13.7138 57.512 13.2592 57.1855 12.8639C56.8694 12.4907 56.4749 12.1918 56.03 11.9885C55.5414 11.7745 55.0119 11.6702 54.4786 11.6827ZM67.8487 20.2603C68.2066 20.2823 68.5649 20.2258 68.8985 20.0945C69.2321 19.9633 69.533 19.7606 69.7799 19.5007C70.237 18.9965 70.4655 18.2219 70.4655 17.1769V10.1796H72.4707V17.2413C72.4865 17.9647 72.3776 18.6855 72.1488 19.372C71.9639 19.9219 71.6518 20.4203 71.2379 20.8268C70.8273 21.2155 70.3296 21.5003 69.7864 21.6572C68.5226 22.0067 67.1877 22.0067 65.924 21.6572C65.3827 21.5002 64.8871 21.2154 64.4789 20.8268C64.066 20.4195 63.7541 19.9213 63.568 19.372C63.3393 18.6855 63.2304 17.9647 63.2461 17.2413V10.1796H65.2578V17.1769C65.2578 18.2197 65.4874 18.9943 65.9465 19.5007C66.19 19.7571 66.4861 19.9578 66.8144 20.0889C67.1428 20.22 67.4956 20.2785 67.8487 20.2603ZM74.4791 21.1036L78.5506 10.1925H81.5697L85.5962 21.1036V21.6508H83.6167L82.4645 18.3742H77.4982L76.333 21.6508H74.4662L74.4791 21.1036ZM78.1033 16.6619H81.8916L81.2672 14.8402C81.0225 14.1289 80.8262 13.5527 80.6749 13.0989C80.5237 12.6451 80.3949 12.2588 80.2758 11.9177H79.7834L79.5903 12.4616C79.5259 12.6419 79.4551 12.8446 79.3746 13.0667C79.2941 13.2888 79.2072 13.5463 79.1107 13.836C79.0141 14.1256 78.8983 14.4572 78.7599 14.8402L78.1033 16.6619ZM96.842 21.6508H94.9109L91.4122 17.1447H90.1248V21.6508H88.1421V10.1796H91.8661C92.424 10.1786 92.9812 10.2184 93.5333 10.2987C94.0463 10.3731 94.5359 10.5623 94.9656 10.8523C95.8711 11.4488 96.3238 12.3479 96.3238 13.5495C96.3329 14.0152 96.2531 14.4783 96.0889 14.9142C95.9498 15.2812 95.741 15.6178 95.4741 15.9055C95.2196 16.176 94.9201 16.4003 94.589 16.5686C94.2572 16.7382 93.9059 16.8669 93.543 16.9516L96.842 21.1036V21.6508ZM90.1184 15.4195H91.8596C92.491 15.4531 93.119 15.3081 93.6717 15.0011C93.8943 14.8523 94.0732 14.6468 94.1897 14.4057C94.3063 14.1647 94.3564 13.8969 94.3347 13.63C94.3611 13.3651 94.3119 13.0982 94.1928 12.8601C94.0738 12.622 93.8898 12.4225 93.662 12.2846C93.1033 12.0068 92.483 11.8761 91.8596 11.9048H90.1184V15.4195ZM99.3976 10.1796H106.826V11.937H101.355V14.9399H106.434V16.6651H101.364V19.8837H106.939V21.6508H99.3976V10.1796ZM111.381 18.3581C111.473 18.8963 111.767 19.3793 112.201 19.7099C112.7 20.0544 113.298 20.2252 113.904 20.196C114.48 20.2327 115.051 20.0626 115.513 19.7164C115.698 19.5631 115.844 19.3697 115.942 19.1511C116.041 18.9324 116.088 18.6942 116.08 18.4547C116.086 18.2306 116.034 18.0087 115.928 17.811C115.823 17.6315 115.677 17.4785 115.504 17.3636C115.296 17.226 115.071 17.1176 114.834 17.0417L113.939 16.7713L113.077 16.5332C112.604 16.4079 112.144 16.2387 111.702 16.0278C111.323 15.8487 110.973 15.6144 110.663 15.3326C110.386 15.0756 110.167 14.763 110.019 14.4153C109.86 14.0102 109.784 13.5773 109.795 13.1423C109.806 12.7072 109.904 12.2788 110.083 11.8823C110.273 11.4795 110.551 11.1251 110.898 10.8459C111.28 10.5399 111.717 10.3095 112.185 10.1667C112.732 9.99333 113.304 9.90964 113.878 9.91891C115.06 9.91891 115.998 10.1979 116.691 10.7557C117.033 11.0317 117.317 11.3731 117.525 11.7599C117.733 12.1468 117.862 12.5714 117.905 13.0088L115.974 13.1665C115.88 12.7243 115.634 12.3291 115.278 12.0496C114.845 11.7593 114.328 11.6191 113.807 11.6505C113.316 11.6216 112.83 11.7651 112.433 12.0561C112.275 12.18 112.148 12.3391 112.063 12.5207C111.977 12.7023 111.935 12.9014 111.941 13.1021C111.932 13.316 111.981 13.5284 112.082 13.7169C112.186 13.8905 112.328 14.0381 112.497 14.1482C112.704 14.2826 112.927 14.3908 113.16 14.47C113.421 14.5666 113.717 14.6696 114.049 14.7758L114.863 15.0301C115.374 15.191 115.834 15.3584 116.244 15.5322C116.623 15.6933 116.975 15.9103 117.29 16.1759C117.573 16.4159 117.8 16.7161 117.953 17.0546C118.119 17.454 118.198 17.8841 118.185 18.3163C118.19 18.8215 118.08 19.3213 117.863 19.7775C117.654 20.2164 117.348 20.6017 116.968 20.904C116.56 21.2239 116.096 21.466 115.6 21.6186C115.033 21.7945 114.443 21.8803 113.849 21.8728C112.802 21.9114 111.769 21.6211 110.895 21.0424C110.489 20.748 110.15 20.3725 109.898 19.9397C109.646 19.5069 109.486 19.0264 109.43 18.5287L111.381 18.3581ZM121.043 10.1796H125.227C125.89 10.1625 126.551 10.2549 127.184 10.4532C127.665 10.6014 128.105 10.858 128.471 11.2031C128.793 11.5162 129.034 11.9028 129.173 12.3297C129.321 12.7804 129.393 13.2523 129.389 13.7265C129.402 14.2609 129.301 14.792 129.093 15.2843C128.904 15.7148 128.611 16.0911 128.24 16.3787C127.833 16.6796 127.372 16.8983 126.881 17.0224C126.292 17.1737 125.685 17.2462 125.076 17.238H123.048V21.6508H121.049L121.043 10.1796ZM123.042 15.5161H124.957C125.281 15.5185 125.604 15.4894 125.922 15.4292C126.193 15.3785 126.453 15.2792 126.688 15.1363C126.905 15.0006 127.082 14.8095 127.2 14.5827C127.33 14.3164 127.393 14.0226 127.383 13.7265C127.393 13.4232 127.33 13.122 127.2 12.8478C127.085 12.6181 126.911 12.4235 126.695 12.2846C126.463 12.1406 126.207 12.0413 125.938 11.9917C125.62 11.931 125.297 11.9019 124.973 11.9048H123.025L123.042 15.5161ZM129.942 21.1036L134.017 10.1925H137.036L141.059 21.1036V21.6508H139.096L137.947 18.3742H132.961L131.812 21.6508H129.942V21.1036ZM133.57 16.6619H137.355L136.73 14.8402C136.486 14.1289 136.289 13.5527 136.141 13.0989L135.742 11.9177H135.234L135.041 12.4616C134.976 12.6419 134.905 12.8446 134.825 13.0667C134.744 13.2888 134.658 13.5463 134.561 13.836C134.464 14.1256 134.349 14.4572 134.21 14.8402L133.57 16.6619ZM153.232 18.6156C153.05 19.0644 152.812 19.4883 152.524 19.8773C152.225 20.2761 151.866 20.6257 151.459 20.9137C151.018 21.2235 150.53 21.4604 150.014 21.6154C149.421 21.7929 148.804 21.8797 148.185 21.8728C147.386 21.885 146.593 21.7327 145.855 21.4255C145.179 21.1435 144.571 20.7224 144.069 20.1895C143.564 19.6444 143.176 19.0028 142.926 18.3034C142.653 17.5426 142.517 16.7395 142.524 15.9313C142.517 15.123 142.653 14.3198 142.926 13.5592C143.176 12.8566 143.567 12.2126 144.075 11.6666C144.58 11.128 145.192 10.7005 145.871 10.4114C146.611 10.1001 147.408 9.94555 148.211 9.95753C149.328 9.91782 150.43 10.2248 151.365 10.8362C152.197 11.4027 152.827 12.2187 153.165 13.1665L151.134 13.5656C150.881 13.0081 150.48 12.5306 149.975 12.1848C149.441 11.8391 148.815 11.664 148.179 11.6827C147.658 11.6713 147.141 11.7815 146.669 12.0046C146.235 12.2175 145.854 12.5243 145.553 12.9026C145.236 13.3056 145 13.7656 144.857 14.2576C144.693 14.799 144.612 15.3622 144.616 15.9281C144.611 16.4976 144.695 17.0643 144.864 17.6082C145.015 18.0953 145.259 18.5488 145.582 18.9439C145.896 19.3149 146.289 19.6126 146.731 19.8162C147.212 20.0369 147.736 20.1469 148.266 20.138C148.924 20.1645 149.572 19.9733 150.11 19.5941C150.585 19.2466 150.97 18.7923 151.237 18.268L153.232 18.6156ZM155.933 10.1796H163.361V11.937H157.89V14.9399H162.978V16.6651H157.899V19.8837H163.474V21.6508H155.933V10.1796Z" fill="white" fill-opacity="0.6" stroke="white" stroke-opacity="0.6" stroke-width="0.332"/>
</svg>
