<svg width="18" height="18" viewBox="0 0 18 18" fill="none" xmlns="http://www.w3.org/2000/svg">
<path d="M1.60516 9.13931L14.9044 1.53976C15.2012 1.36164 15.6168 1.36164 15.9137 1.56944C16.2105 1.77724 16.359 2.13347 16.2996 2.4897L14.3997 14.839C14.3107 15.4327 13.6576 15.8186 13.0935 15.5811L9.41251 14.0375L7.57199 16.2639C7.39388 16.4717 7.12671 16.5904 6.82985 16.5904C6.29551 16.5904 5.87991 16.1748 5.87991 15.6405V12.5532L1.69422 10.8314C0.981761 10.5345 0.922389 9.52522 1.60516 9.13931ZM3.14882 9.88145L6.80016 11.3954L6.77048 11.3657L13.2717 4.09273L3.14882 9.88145ZM13.0935 14.0375L14.4888 4.86456L8.13602 11.9594L13.0935 14.0375Z" fill="#F8AB4B"/>
</svg>
