<svg width="18" height="18" viewBox="0 0 18 18" fill="none" xmlns="http://www.w3.org/2000/svg">
<path fill-rule="evenodd" clip-rule="evenodd" d="M10 2C10.8125 2 11.5 2.6875 11.5 3.5V5.5C11.5 6.34375 10.8125 7 10 7H9.75V8.25H15C15.4142 8.25 15.75 8.58579 15.75 9C15.75 9.41421 15.4142 9.75 15 9.75H3C2.58579 9.75 2.25 9.41421 2.25 9C2.25 8.58579 2.58579 8.25 3 8.25H8.25V7H8C7.15625 7 6.5 6.34375 6.5 5.5V3.5C6.5 2.6875 7.15625 2 8 2H10ZM8 3.5H10V5.5H8V3.5Z" fill="#18C4A9"/>
<path fill-rule="evenodd" clip-rule="evenodd" d="M3.25 11H3.5C4.3125 11 5 11.6875 5 12.5V14.5C5 15.3438 4.3125 16 3.5 16H1.5C0.65625 16 0 15.3438 0 14.5V12.5C0 11.6875 0.65625 11 1.5 11H1.75H3.25ZM3.5 14.5H1.5V12.5H3.5V14.5Z" fill="#18C4A9"/>
<path fill-rule="evenodd" clip-rule="evenodd" d="M9.75 11H10C10.8125 11 11.5 11.6875 11.5 12.5V14.5C11.5 15.3438 10.8125 16 10 16H8C7.15625 16 6.5 15.3438 6.5 14.5V12.5C6.5 11.6875 7.15625 11 8 11H8.25H9.75ZM10 14.5H8V12.5H10V14.5Z" fill="#18C4A9"/>
<path fill-rule="evenodd" clip-rule="evenodd" d="M16.25 11H16.5C17.3125 11 18 11.6875 18 12.5V14.5C18 15.3438 17.3125 16 16.5 16H14.5C13.6562 16 13 15.3438 13 14.5V12.5C13 11.6875 13.6562 11 14.5 11H14.75H16.25ZM16.5 14.5H14.5V12.5H16.5V14.5Z" fill="#18C4A9"/>
</svg>
